<?xml version="1.0" standalone="no"?>
<!DOCTYPE svg PUBLIC "-//W3C//DTD SVG 20010904//EN"
 "http://www.w3.org/TR/2001/REC-SVG-20010904/DTD/svg10.dtd">
<svg version="1.0" xmlns="http://www.w3.org/2000/svg"
 width="512.000000pt" height="512.000000pt" viewBox="0 0 512.000000 512.000000"
 preserveAspectRatio="xMidYMid meet">

<g transform="translate(0.000000,512.000000) scale(0.100000,-0.100000)"
fill="#000000" stroke="none">
<path d="M3069 4627 c-67 -19 -81 -28 -497 -340 -210 -158 -386 -287 -391
-287 -5 0 -209 68 -453 152 l-443 151 -95 1 c-83 1 -102 -3 -152 -26 -80 -37
-152 -107 -191 -187 -29 -59 -32 -74 -32 -156 0 -90 0 -91 153 -538 83 -247
152 -453 152 -457 0 -5 -134 -189 -299 -408 -183 -245 -305 -418 -317 -448
-13 -34 -19 -75 -19 -134 0 -76 4 -93 33 -151 38 -79 101 -140 180 -177 l57
-27 520 4 c497 3 521 2 536 -15 9 -11 132 -183 274 -384 141 -201 271 -379
287 -397 43 -45 132 -89 206 -103 154 -27 317 51 389 187 17 32 93 256 168
498 75 242 142 445 149 451 6 6 216 75 466 153 472 148 517 166 580 237 75 86
111 212 90 316 -13 69 -45 139 -85 186 -14 17 -187 145 -383 283 -196 139
-374 266 -396 282 l-38 30 3 521 4 521 -32 66 c-61 123 -171 197 -306 205 -42
2 -91 -1 -118 -9z m127 -324 c15 -16 16 -38 10 -243 -9 -325 -8 -780 2 -815
15 -49 48 -107 84 -147 18 -21 206 -159 418 -308 212 -149 388 -279 392 -290
13 -35 -11 -68 -61 -84 -25 -8 -228 -72 -451 -141 -223 -70 -427 -138 -453
-153 -55 -30 -117 -93 -146 -149 -10 -22 -76 -221 -146 -444 -69 -222 -133
-425 -141 -450 -16 -50 -49 -74 -83 -61 -11 4 -137 174 -280 377 -144 204
-281 392 -306 418 -25 27 -69 59 -102 75 l-58 27 -528 0 c-555 0 -546 -1 -547
42 0 6 122 175 271 375 150 200 287 386 305 413 42 64 68 162 60 230 -3 28
-73 253 -156 500 -98 292 -149 458 -145 473 3 12 16 28 30 34 21 9 88 -11 477
-141 249 -83 476 -154 503 -157 80 -10 167 17 260 81 44 30 229 167 410 304
182 137 338 250 347 250 9 1 24 -7 34 -16z"/>
<path d="M3795 1425 c-79 -27 -125 -112 -104 -190 9 -34 66 -96 362 -392 381
-380 374 -375 464 -358 49 9 109 69 118 118 17 90 21 84 -348 455 -188 189
-353 349 -367 356 -42 22 -83 25 -125 11z"/>
</g>
</svg>
